name rise30.2954peak35.7071fall66.7804.mot
datacolumns 19
datarows 29
range 0.30000500000000 0.34667300000000
endheader
time	ground_force1_vx	ground_force1_vy	ground_force1_vz	ground_force1_px	ground_force1_py	ground_force1_pz	ground_force2_vx	ground_force2_vy	ground_force2_vz	ground_force2_px	ground_force2_py	ground_force2_pz	ground_torque1_x	ground_torque1_y	ground_torque1_z	ground_torque2_x	ground_torque2_y	ground_torque2_z	
0.30000500000000	-2.04492800000000	41.26751900000000	-8.31418900000000	0.30441400000000	0.00000000000000	0.12037400000000	-40.07921500000000	798.26351599999998	-53.76760100000000	0.10286600000000	0.00000000000000	-0.08114000000000	0.00000000000000	-5.44350500000000	0.00000000000000	0.00000000000000	-15.76330000000000	0.00000000000000	
0.30166600000000	-2.16948000000000	48.25660500000000	-9.28004800000000	0.31019500000000	0.00000000000000	0.12114900000000	-40.58669500000000	795.20626800000002	-53.41014000000000	0.10228300000000	0.00000000000000	-0.08099100000000	0.00000000000000	-6.14770300000000	0.00000000000000	0.00000000000000	-15.67376700000000	0.00000000000000	
0.30333400000000	-2.23172000000000	55.30500500000000	-10.13257300000000	0.31526800000000	0.00000000000000	0.12186600000000	-41.11673600000000	792.04787899999997	-53.03991900000000	0.10169900000000	0.00000000000000	-0.08084000000000	0.00000000000000	-6.78752700000000	0.00000000000000	0.00000000000000	-15.58900300000000	0.00000000000000	
0.30500400000000	-2.22429900000000	62.31988500000000	-10.84958000000000	0.31973600000000	0.00000000000000	0.12253400000000	-41.66932300000000	788.78705100000002	-52.65685400000000	0.10111300000000	0.00000000000000	-0.08068800000000	0.00000000000000	-7.34661800000000	0.00000000000000	0.00000000000000	-15.50906500000000	0.00000000000000	
0.30667100000000	-2.14258000000000	69.23186500000000	-11.41683900000000	0.32368400000000	0.00000000000000	0.12316000000000	-42.24433300000000	785.42238599999996	-52.26085000000000	0.10052500000000	0.00000000000000	-0.08053300000000	0.00000000000000	-7.81404600000000	0.00000000000000	0.00000000000000	-15.43399100000000	0.00000000000000	
0.30834400000000	-1.98458000000000	75.99705600000000	-11.82809700000000	0.32718200000000	0.00000000000000	0.12374900000000	-42.84153200000000	781.95239500000002	-51.85180600000000	0.09993500000000	0.00000000000000	-0.08037700000000	0.00000000000000	-8.18443800000000	0.00000000000000	0.00000000000000	-15.36379200000000	0.00000000000000	
0.31000100000000	-1.75072100000000	82.59665600000000	-12.08445200000000	0.33028900000000	0.00000000000000	0.12430500000000	-43.46057700000000	778.37549799999999	-51.42961600000000	0.09934000000000	0.00000000000000	-0.08022000000000	0.00000000000000	-8.45762200000000	0.00000000000000	0.00000000000000	-15.29846000000000	0.00000000000000	
0.31166800000000	-1.44342400000000	89.03455200000001	-12.19322600000000	0.33305300000000	0.00000000000000	0.12483200000000	-44.10100900000000	774.69003399999997	-50.99416800000000	0.09874200000000	0.00000000000000	-0.08006100000000	0.00000000000000	-8.63790300000000	0.00000000000000	0.00000000000000	-15.23796300000000	0.00000000000000	
0.31333600000000	-1.06662400000000	95.33345300000001	-12.16652900000000	0.33551600000000	0.00000000000000	0.12533300000000	-44.76225000000000	770.89426100000003	-50.54535100000000	0.09813900000000	0.00000000000000	-0.07990100000000	0.00000000000000	-8.73309400000000	0.00000000000000	0.00000000000000	-15.18224600000000	0.00000000000000	
0.31500700000000	-0.62523900000000	101.53015400000000	-12.01967400000000	0.33771500000000	0.00000000000000	0.12581100000000	-45.44360900000000	766.98637099999996	-50.08305300000000	0.09753100000000	0.00000000000000	-0.07973900000000	0.00000000000000	-8.75342000000000	0.00000000000000	0.00000000000000	-15.13123400000000	0.00000000000000	
0.31667100000000	-0.12467100000000	107.67045800000000	-11.76961000000000	0.33967900000000	0.00000000000000	0.12626800000000	-46.14427200000000	762.96448999999996	-49.60716400000000	0.09691700000000	0.00000000000000	-0.07957700000000	0.00000000000000	-8.71041600000000	0.00000000000000	0.00000000000000	-15.08482400000000	0.00000000000000	
0.31833700000000	0.42965600000000	113.80423100000000	-11.43349200000000	0.34143500000000	0.00000000000000	0.12670500000000	-46.86330800000000	758.82668799999999	-49.11757900000000	0.09629800000000	0.00000000000000	-0.07941300000000	0.00000000000000	-8.61591400000000	0.00000000000000	0.00000000000000	-15.04289600000000	0.00000000000000	
0.32000500000000	1.03265900000000	119.98097199999999	-11.02747700000000	0.34300600000000	0.00000000000000	0.12712400000000	-47.59966700000000	754.57099200000005	-48.61420100000000	0.09567300000000	0.00000000000000	-0.07924900000000	0.00000000000000	-8.48117300000000	0.00000000000000	0.00000000000000	-15.00530300000000	0.00000000000000	
0.32166600000000	1.67987600000000	126.24614200000001	-10.56581000000000	0.34441200000000	0.00000000000000	0.12752700000000	-48.35218100000000	750.19538899999998	-48.09694100000000	0.09504100000000	0.00000000000000	-0.07908300000000	0.00000000000000	-8.31621000000000	0.00000000000000	0.00000000000000	-14.97188000000000	0.00000000000000	
0.32333500000000	2.36763500000000	132.63841500000001	-10.06021100000000	0.34567200000000	0.00000000000000	0.12791400000000	-49.11956300000000	745.69784200000004	-47.56572300000000	0.09440300000000	0.00000000000000	-0.07891700000000	0.00000000000000	-8.12934600000000	0.00000000000000	0.00000000000000	-14.94243600000000	0.00000000000000	
0.32500600000000	3.09313400000000	139.18789300000000	-9.51955900000000	0.34680000000000	0.00000000000000	0.12828700000000	-49.90041300000000	741.07629399999996	-47.02048500000000	0.09375800000000	0.00000000000000	-0.07875000000000	0.00000000000000	-7.92695500000000	0.00000000000000	0.00000000000000	-14.91676200000000	0.00000000000000	
0.32667400000000	3.85443400000000	145.91524600000000	-8.94985300000000	0.34781000000000	0.00000000000000	0.12864600000000	-50.69321700000000	736.32868699999995	-46.46118000000000	0.09310800000000	0.00000000000000	-0.07858200000000	0.00000000000000	-7.71341200000000	0.00000000000000	0.00000000000000	-14.89462700000000	0.00000000000000	
0.32833500000000	4.65037300000000	152.83168100000000	-8.35438600000000	0.34871400000000	0.00000000000000	0.12899200000000	-51.49635100000000	731.45296699999994	-45.88778200000000	0.09245000000000	0.00000000000000	-0.07841300000000	0.00000000000000	-7.49119800000000	0.00000000000000	0.00000000000000	-14.87577900000000	0.00000000000000	
0.33000700000000	5.48044600000000	159.93958100000000	-7.73409800000000	0.34952400000000	0.00000000000000	0.12932600000000	-52.30808400000000	726.44709899999998	-45.30028600000000	0.09178700000000	0.00000000000000	-0.07824400000000	0.00000000000000	-7.26112700000000	0.00000000000000	0.00000000000000	-14.85994900000000	0.00000000000000	
0.33166600000000	6.34463600000000	167.23365100000001	-7.08803600000000	0.35024800000000	0.00000000000000	0.12964900000000	-53.12658500000000	721.30908199999999	-44.69871200000000	0.09111700000000	0.00000000000000	-0.07807400000000	0.00000000000000	-7.02265900000000	0.00000000000000	0.00000000000000	-14.84684600000000	0.00000000000000	
0.33333300000000	7.24324500000000	174.70239300000000	-6.41387400000000	0.35089600000000	0.00000000000000	0.12996000000000	-53.94992200000000	716.03696200000002	-44.08310200000000	0.09044200000000	0.00000000000000	-0.07790300000000	0.00000000000000	-6.77425400000000	0.00000000000000	0.00000000000000	-14.83616300000000	0.00000000000000	
0.33500700000000	8.17671700000000	182.32972500000000	-5.70844000000000	0.35147400000000	0.00000000000000	0.13026100000000	-54.77607000000000	710.62884299999996	-43.45352900000000	0.08976200000000	0.00000000000000	-0.07773100000000	0.00000000000000	-6.51373300000000	0.00000000000000	0.00000000000000	-14.82757500000000	0.00000000000000	
0.33666500000000	9.14547700000000	190.09662200000000	-4.96821000000000	0.35199000000000	0.00000000000000	0.13055100000000	-55.60291900000000	705.08290999999997	-42.81009500000000	0.08907600000000	0.00000000000000	-0.07755900000000	0.00000000000000	-6.23862500000000	0.00000000000000	0.00000000000000	-14.82074300000000	0.00000000000000	
0.33833400000000	10.14980200000000	197.98263499999999	-4.18974300000000	0.35244800000000	0.00000000000000	0.13083100000000	-56.42827600000000	699.39743899999996	-42.15293300000000	0.08838600000000	0.00000000000000	-0.07738600000000	0.00000000000000	-5.94646000000000	0.00000000000000	0.00000000000000	-14.81531100000000	0.00000000000000	
0.34000400000000	11.18970600000000	205.96720400000001	-3.37002700000000	0.35285600000000	0.00000000000000	0.13110200000000	-57.24987300000000	693.57081500000004	-41.48220800000000	0.08769300000000	0.00000000000000	-0.07721200000000	0.00000000000000	-5.63502200000000	0.00000000000000	0.00000000000000	-14.81090900000000	0.00000000000000	
0.34166900000000	12.26487100000000	214.03071900000000	-2.50673400000000	0.35321600000000	0.00000000000000	0.13136300000000	-58.06537500000000	687.60155199999997	-40.79812000000000	0.08699500000000	0.00000000000000	-0.07703700000000	0.00000000000000	-5.30252200000000	0.00000000000000	0.00000000000000	-14.80715600000000	0.00000000000000	
0.34335300000000	13.37460100000000	222.15529200000000	-1.59838700000000	0.35353400000000	0.00000000000000	0.13161500000000	-58.87238600000000	681.48830499999997	-40.10090400000000	0.08629500000000	0.00000000000000	-0.07686200000000	0.00000000000000	-4.94771300000000	0.00000000000000	0.00000000000000	-14.80365800000000	0.00000000000000	
0.34500600000000	14.51780500000000	230.32524200000000	-0.64443000000000	0.35381300000000	0.00000000000000	0.13185800000000	-59.66845600000000	675.22989099999995	-39.39083100000000	0.08559200000000	0.00000000000000	-0.07668600000000	0.00000000000000	-4.56994800000000	0.00000000000000	0.00000000000000	-14.80001100000000	0.00000000000000	
0.34667300000000	15.69301500000000	238.52732200000000	0.35477300000000	0.35405500000000	0.00000000000000	0.13209200000000	-60.45109100000000	668.82530699999995	-38.66820700000000	0.08488800000000	0.00000000000000	-0.07650800000000	0.00000000000000	-4.16917800000000	0.00000000000000	0.00000000000000	-14.79580300000000	0.00000000000000	
